<svg width="1003" height="279" viewBox="0 0 1003 279" fill="none" xmlns="http://www.w3.org/2000/svg">
<g clip-path="url(#clip0_121_925)">
<path d="M441.56 171.011C441.56 171.011 441.53 68.4506 441.53 11.0306C441.53 10.3306 441.48 9.62063 441.43 8.93063L441.19 4.64062H386.08V226.231H297.63V4.65063H242.51L242.36 8.13063C242.34 8.52063 242.32 8.88062 242.3 9.23062C242.26 9.89062 242.22 10.4906 242.22 11.0906V43.9506C242.2 106.031 242.18 168.121 242.24 230.191C242.27 256.451 265.24 277.881 293.44 277.981C308.25 278.031 323.19 278.051 338.01 278.051C355.72 278.051 373.25 278.021 390.21 277.991C403.58 277.961 415.33 273.601 425.14 265.031C435.69 255.841 441.07 244.421 441.58 230.121L441.71 226.361H386.52L441.56 171.021V171.011Z" fill="white"/>
<path d="M947.52 55.18L947.57 277.85H1002.62L1002.99 0L947.52 55.18Z" fill="white"/>
<path d="M682.94 229.729C682.97 212.689 682.94 195.659 682.92 178.619L682.9 163.169C682.89 141.389 667.31 122.909 645.44 117.239C644.65 117.029 628.19 115.369 627.38 115.199H539.28V56.3592H627.38V115.199L683.02 89.3392C683.02 89.3392 682.97 77.0992 682.97 70.9692C682.97 64.8392 682.97 58.6692 682.92 52.5392C682.9 49.3992 682.57 46.2892 681.91 43.3092C676.87 20.4492 655.81 4.46922 630.7 4.44922C599.73 4.44922 568.76 4.44922 537.79 4.44922H483.91V278.009H514.98H539.32C569.97 278.009 600.63 278.009 631.28 277.959C634.98 277.959 638.5 277.639 641.77 276.999C665.99 272.239 682.93 252.799 682.97 229.719M627.57 221.789V226.179H539.27V167.209H627.58C627.61 183.279 627.58 208.639 627.57 221.799" fill="white"/>
<path d="M909.94 46.8402C907.16 23.1802 885.09 4.59023 859.7 4.53023C817.3 4.44023 709.78 4.53023 709.78 4.53023L765.25 60.1602H852.6C839.91 80.5702 815.88 118.54 790.57 158.54C762.06 203.6 732.57 250.19 720.56 269.72C720.18 270.35 719.84 271 719.42 271.8L716.03 278.17H737.84C749.56 278.15 761.69 278.14 773.61 278.23H773.7C777.58 278.23 780.11 276.82 782.12 273.54C818.23 214.76 856.65 152.36 903 77.1602C908.84 67.7002 911.17 57.5102 909.93 46.8602L909.94 46.8402Z" fill="white"/>
<path d="M144.09 277.99H199.03L199.37 274.04C199.42 273.51 199.46 273.08 199.46 272.65C199.46 236.21 199.41 163.3 199.41 163.25L198.6 115.6H143.9C146.85 114.21 198.95 103.9 199.24 71.4604V4.72039H143.9V115.45H55.37V4.65039H0L0.28 278.04H55.51V167.49H144.09V277.98V277.99Z" fill="white"/>
</g>
<defs>
<clipPath id="clip0_121_925">
<rect width="1002.99" height="278.22" fill="white"/>
</clipPath>
</defs>
</svg>
